<?xml version="1.0" standalone="no"?>
<!DOCTYPE svg PUBLIC "-//W3C//DTD SVG 20010904//EN"
 "http://www.w3.org/TR/2001/REC-SVG-20010904/DTD/svg10.dtd">
<svg version="1.0" xmlns="http://www.w3.org/2000/svg"
 width="665.000000pt" height="375.000000pt" viewBox="0 0 665.000000 375.000000"
 preserveAspectRatio="xMidYMid meet">

<g transform="translate(0.000000,375.000000) scale(0.100000,-0.100000)"
fill="#000000" stroke="none">
<path d="M4270 3442 c-82 -37 -100 -82 -100 -245 l0 -122 -73 -57 c-39 -32
-81 -58 -92 -58 -14 0 -28 14 -43 43 -30 56 -107 144 -115 131 -3 -6 11 -30
32 -55 21 -24 52 -69 69 -99 18 -30 32 -49 32 -42 0 17 30 15 37 -4 9 -23 -13
-40 -31 -25 -13 11 -33 0 -123 -68 -60 -45 -152 -115 -205 -154 l-97 -72 -1
-132 c0 -82 4 -133 10 -133 6 0 10 50 10 129 0 71 4 131 9 133 4 2 23 15 42
30 87 69 343 258 349 258 32 0 51 -251 26 -347 -26 -104 -81 -200 -158 -277
-41 -41 -65 -73 -60 -78 13 -13 130 107 170 174 86 145 112 333 67 486 -8 24
-9 44 -4 48 5 3 9 13 9 22 1 10 32 38 70 65 l70 47 0 -645 c0 -630 0 -647 20
-686 35 -67 66 -79 205 -79 l120 0 -3 -600 -3 -600 439 0 c352 0 442 -3 450
-13 7 -9 11 -61 9 -145 -1 -73 1 -132 5 -132 4 0 3 -11 -3 -24 -11 -23 -23
-31 -81 -55 -16 -6 -28 -17 -28 -26 0 -13 18 -15 113 -15 l112 0 -3 55 -4 55
36 0 36 0 0 144 0 144 26 6 c15 4 30 3 34 -1 7 -8 9 -16 57 -188 28 -99 28
-100 61 -103 42 -4 41 -14 -5 -38 -28 -14 -39 -27 -41 -47 l-3 -27 96 0 97 0
-6 77 c-6 73 -23 177 -46 268 -5 22 -10 43 -10 48 0 4 68 7 150 7 l150 0 0
574 c0 611 -2 640 -50 765 -82 211 -210 350 -418 455 -106 53 -212 76 -359 76
l-121 0 -4 523 -3 522 -23 37 c-13 21 -40 45 -66 57 -41 20 -58 21 -432 20
-214 0 -396 -3 -404 -7z m717 -134 c65 -39 63 -15 63 -789 0 -777 2 -747 -65
-789 -31 -19 -49 -20 -334 -20 -327 0 -337 1 -380 56 -21 27 -21 32 -21 753 0
803 -4 750 64 792 29 18 53 19 335 19 293 0 305 -1 338 -22z m217 -1473 c21
-44 24 -138 6 -160 -12 -15 17 -215 32 -215 4 0 8 10 8 23 0 34 47 96 78 103
85 19 121 36 130 62 6 18 4 35 -6 55 -16 32 -10 96 10 109 10 6 10 8 1 8 -7 0
-13 7 -13 16 0 10 6 14 14 11 7 -3 26 1 42 9 22 12 34 13 53 4 21 -9 23 -16
18 -50 -5 -37 -3 -40 19 -40 31 0 33 -32 3 -51 l-21 -14 28 -43 c15 -23 38
-45 50 -48 l23 -6 -29 -46 c-27 -45 -60 -130 -60 -155 0 -22 -41 -91 -79 -132
-20 -22 -45 -59 -55 -82 -20 -45 -29 -49 -70 -33 -25 9 -26 13 -26 85 0 41 -4
75 -8 75 -5 0 -17 -9 -28 -21 -35 -39 -102 -72 -132 -64 -58 14 -59 19 -54
208 4 162 3 176 -17 223 -23 50 -22 114 1 114 7 0 9 15 5 44 -5 37 -3 45 11
49 33 9 47 1 66 -38z m592 -254 c23 -11 64 -50 99 -92 93 -111 90 -106 90
-183 -1 -93 -10 -123 -43 -140 -15 -8 -63 -49 -107 -90 l-80 -76 -68 0 c-43 0
-66 4 -62 10 3 6 -1 10 -9 10 -18 0 -40 36 -31 50 3 6 28 10 55 10 40 0 48 3
44 15 -8 19 -3 19 32 1 15 -8 31 -13 35 -10 22 13 89 130 89 155 0 48 -81 149
-119 149 -19 0 -23 -83 -7 -130 21 -61 20 -77 -8 -95 -29 -20 -210 -33 -220
-17 -9 15 6 43 59 112 39 51 75 133 75 169 0 8 21 50 47 93 53 86 63 91 129
59z"/>
<path d="M4552 2854 c-29 -14 -52 -30 -52 -36 0 -5 12 0 28 10 15 11 50 27 77
35 35 11 42 16 24 16 -14 1 -48 -11 -77 -25z"/>
<path d="M4745 2862 c28 -10 65 -28 83 -40 17 -13 32 -20 32 -15 0 21 -103 73
-143 73 -12 -1 0 -8 28 -18z"/>
<path d="M4436 2749 c-15 -22 -26 -44 -24 -48 2 -4 17 14 35 41 17 26 28 48
24 48 -5 0 -20 -18 -35 -41z"/>
<path d="M4913 2719 c58 -112 48 -249 -25 -351 -23 -32 -25 -38 -8 -23 12 11
34 43 49 70 23 44 26 61 26 150 0 90 -3 105 -27 152 -15 28 -32 54 -37 58 -5
3 5 -22 22 -56z"/>
<path d="M4320 2756 c0 -2 8 -10 18 -17 15 -13 16 -12 3 4 -13 16 -21 21 -21
13z"/>
<path d="M4360 2726 c0 -2 8 -10 18 -17 15 -13 16 -12 3 4 -13 16 -21 21 -21
13z"/>
<path d="M4435 2660 c10 -11 20 -20 23 -20 3 0 -3 9 -13 20 -10 11 -20 20 -23
20 -3 0 3 -9 13 -20z"/>
<path d="M4392 2653 c-16 -40 -7 -167 16 -216 24 -55 78 -127 94 -127 6 0 -6
18 -27 41 -65 73 -97 187 -77 277 10 43 7 56 -6 25z"/>
<path d="M4485 2620 c10 -11 20 -20 23 -20 3 0 -3 9 -13 20 -10 11 -20 20 -23
20 -3 0 3 -9 13 -20z"/>
<path d="M4545 2570 c10 -11 20 -20 23 -20 3 0 -3 9 -13 20 -10 11 -20 20 -23
20 -3 0 3 -9 13 -20z"/>
<path d="M4600 2462 l5 -77 3 69 c2 38 -1 73 -5 77 -4 4 -6 -27 -3 -69z"/>
<path d="M4602 2317 l-2 -47 -37 15 c-31 13 -35 13 -23 2 8 -8 25 -18 38 -22
27 -8 35 8 29 61 -3 37 -4 36 -5 -9z"/>
<path d="M4777 2285 c-58 -28 -69 -37 -30 -26 34 10 93 39 93 46 0 8 -13 4
-63 -20z"/>
<path d="M4638 2253 c12 -2 30 -2 40 0 9 3 -1 5 -23 4 -22 0 -30 -2 -17 -4z"/>
<path d="M4603 2185 c0 -33 2 -45 4 -27 2 18 2 45 0 60 -2 15 -4 0 -4 -33z"/>
<path d="M5520 1780 c0 -5 5 -10 11 -10 5 0 7 5 4 10 -3 6 -8 10 -11 10 -2 0
-4 -4 -4 -10z"/>
<path d="M5170 1719 c0 -5 5 -7 10 -4 6 3 10 8 10 11 0 2 -4 4 -10 4 -5 0 -10
-5 -10 -11z"/>
<path d="M3272 3289 c-76 -19 -165 -62 -216 -102 -48 -39 -14 -38 43 0 58 39
199 93 244 93 17 0 27 5 27 15 0 18 -7 18 -98 -6z"/>
<path d="M3430 3301 c0 -6 21 -12 48 -16 109 -13 200 -46 290 -106 25 -17 32
-18 32 -6 0 16 -73 67 -133 92 -78 32 -237 56 -237 36z"/>
<path d="M2940 3073 c-47 -57 -98 -169 -116 -253 -29 -135 -5 -306 59 -420 50
-91 127 -177 147 -165 8 5 3 16 -17 34 -125 115 -198 324 -174 497 14 99 43
173 98 256 57 86 58 88 45 88 -6 0 -25 -17 -42 -37z"/>
<path d="M3310 2520 l0 -30 110 0 110 0 0 30 0 30 -110 0 -110 0 0 -30z m120
0 c0 -14 -9 -18 -39 -18 -24 -1 -41 4 -44 13 -8 19 1 24 44 23 30 0 39 -4 39
-18z m58 3 c-2 -10 -12 -18 -23 -18 -11 0 -21 8 -23 18 -3 13 3 17 23 17 20 0
26 -4 23 -17z"/>
<path d="M3552 2293 c5 -6 8 -50 6 -96 -2 -64 0 -83 9 -80 7 3 15 -2 19 -10 5
-13 14 -11 67 10 65 26 85 39 75 49 -4 3 -36 -6 -72 -20 -35 -14 -67 -26 -71
-26 -3 0 -5 42 -3 93 3 89 2 92 -19 92 -15 0 -19 -3 -11 -12z"/>
<path d="M723 2280 c-199 -40 -410 -178 -518 -340 -49 -73 -96 -171 -113 -232
l-10 -38 795 0 796 0 -7 31 c-8 43 -77 188 -116 244 -77 112 -233 235 -366
289 -123 50 -333 71 -461 46z"/>
<path d="M2700 2220 l0 -30 110 0 110 0 0 30 0 30 -110 0 -110 0 0 -30z m180
0 c0 -11 -5 -20 -11 -20 -5 0 -7 6 -3 13 5 8 2 8 -9 -2 -15 -12 -17 -11 -17 2
0 9 8 18 18 20 9 3 18 5 20 6 1 0 2 -8 2 -19z m-80 -2 c0 -6 -3 -8 -6 -5 -4 3
-15 2 -25 -4 -15 -7 -17 -6 -13 6 7 18 44 21 44 3z"/>
<path d="M3076 2192 c-8 -13 107 -71 179 -92 48 -14 65 -15 65 -6 0 7 -23 18
-51 25 -28 7 -80 28 -115 47 -73 38 -71 37 -78 26z"/>
<path d="M3458 2103 c-92 -5 -86 -23 7 -23 60 0 75 3 75 15 0 8 -3 14 -7 13
-5 -1 -38 -3 -75 -5z"/>
<path d="M3570 2074 c-12 -4 -14 -23 -12 -110 2 -59 -1 -111 -6 -117 -8 -9 -4
-12 11 -12 21 0 22 4 22 123 0 67 0 121 0 121 0 -1 -7 -3 -15 -5z"/>
<path d="M3548 1798 c5 -5 16 -8 23 -6 8 3 3 7 -10 11 -17 4 -21 3 -13 -5z"/>
<path d="M60 1560 c0 -19 7 -20 145 -20 l145 0 0 -260 0 -260 -145 0 c-122 0
-145 -2 -145 -15 0 -13 21 -15 130 -15 l130 0 2 -62 c1 -35 2 -70 4 -78 1 -8
2 -39 3 -68 1 -45 6 -58 30 -83 l29 -29 207 0 c283 0 268 -11 281 208 l7 112
800 0 c786 0 800 0 832 20 33 20 55 63 55 105 0 13 -17 67 -39 121 -21 55 -51
132 -66 172 -32 87 -65 128 -120 153 -38 18 -95 19 -1162 19 -1116 0 -1123 0
-1123 -20z m530 -440 l0 -420 -95 0 c-147 0 -135 -39 -135 440 l0 400 115 0
115 0 0 -420z m250 20 c0 -480 13 -440 -140 -440 l-100 0 0 323 c0 177 3 366
7 420 l6 97 114 0 113 0 0 -400z m570 140 l0 -260 -280 0 -280 0 0 260 0 260
280 0 280 0 0 -260z m560 0 l0 -260 -275 0 -275 0 0 260 0 260 275 0 275 0 0
-260z m400 223 c33 -32 49 -65 105 -211 72 -189 75 -215 28 -252 -24 -19 -40
-20 -274 -20 l-249 0 0 260 0 260 175 0 176 0 39 -37z"/>
<path d="M2552 1560 c-70 -43 -68 -90 10 -287 69 -177 99 -218 183 -258 53
-25 56 -25 320 -25 l266 0 -3 27 c-2 14 -9 28 -16 31 -7 2 -10 -2 -6 -12 6
-14 -20 -16 -244 -16 -224 0 -255 2 -295 19 -73 31 -110 78 -152 188 -20 54
-48 124 -61 156 -29 71 -30 97 -3 131 20 26 23 26 141 26 91 0 119 3 116 13
-5 14 -74 25 -163 26 -43 1 -69 -5 -93 -19z"/>
<path d="M3290 1520 l0 -30 115 0 115 0 0 30 0 30 -115 0 -115 0 0 -30z m123
-4 c4 -11 -4 -14 -39 -14 -31 0 -44 4 -44 14 0 10 12 14 39 14 24 0 41 -5 44
-14z m57 -1 c0 -8 -9 -15 -20 -15 -11 0 -20 7 -20 15 0 8 9 15 20 15 11 0 20
-7 20 -15z"/>
<path d="M3800 1515 l0 -35 63 0 c34 0 86 3 115 6 49 6 52 8 52 35 l0 29 -115
0 -115 0 0 -35z m100 2 c0 -7 -11 -14 -25 -15 -18 -1 -23 2 -19 13 7 18 44 20
44 2z m17 -9 c-3 -8 -6 -5 -6 6 -1 11 2 17 5 13 3 -3 4 -12 1 -19z m63 7 c0
-8 -9 -15 -20 -15 -11 0 -20 7 -20 15 0 8 9 15 20 15 11 0 20 -7 20 -15z"/>
<path d="M3057 920 c-41 -12 -57 -29 -57 -59 0 -34 10 -48 43 -60 49 -19 104
-14 121 11 36 50 8 119 -47 117 -18 0 -45 -5 -60 -9z m91 -22 c21 -21 15 -76
-10 -89 -18 -10 -24 -8 -40 11 -21 25 -22 43 -8 71 12 21 40 25 58 7z"/>
<path d="M2874 785 c-19 -15 -19 -15 0 -30 26 -20 60 -19 77 1 11 14 10 18 -6
30 -24 18 -46 18 -71 -1z m65 -4 c7 -5 10 -14 7 -20 -9 -14 -46 -14 -66 -1
-13 9 -13 11 0 20 19 12 41 12 59 1z"/>
<path d="M60 527 l0 -97 820 0 c810 0 820 0 820 20 0 19 10 20 656 22 l656 3
23 27 c13 16 30 28 38 28 18 0 43 27 55 60 l10 25 -1539 4 -1539 4 0 -96z"/>
</g>
</svg>
