<svg width="50" height="50" viewBox="0 0 50 50" fill="none" xmlns="http://www.w3.org/2000/svg">
<path d="M39.5835 26.875C39.5835 26.875 39.3752 26.875 39.1668 26.875C38.9585 26.875 38.7502 26.875 38.5418 27.0834L36.8752 28.75C36.6668 28.9584 36.6668 29.1667 36.6668 29.375V36.0417C36.6668 37.2917 36.2502 38.125 35.4168 38.9584C34.5835 39.7917 33.5418 40.2083 32.5002 40.2083H10.8335C9.5835 40.2083 8.75016 39.7917 7.91683 38.9584C7.0835 38.125 6.66683 37.0834 6.66683 36.0417V14.1667C6.66683 13.125 7.0835 12.0834 7.91683 11.25C8.75016 10.4167 9.79183 10 10.8335 10H32.5002C32.9168 10 33.3335 10 33.7502 10.2084C33.9585 10.2084 33.9585 10.2084 33.9585 10.2084C34.1668 10.2084 34.3752 10.2084 34.5835 10L35.8335 8.75002C36.0418 8.54169 36.0418 8.33335 36.0418 7.91669C36.0418 7.70835 35.8335 7.50002 35.6252 7.29169C34.7918 6.87502 33.7502 6.66669 32.5002 6.66669H10.8335C8.75016 6.66669 7.0835 7.50002 5.62516 8.95835C4.16683 10.4167 3.3335 12.0834 3.3335 14.1667V35.8334C3.3335 37.9167 4.16683 39.5834 5.62516 41.0417C7.0835 42.5 8.9585 43.3333 10.8335 43.3333H32.5002C34.5835 43.3333 36.2502 42.5 37.7085 41.0417C39.1668 39.5834 40.0002 37.7084 40.0002 35.8334V27.5C40.0002 27.0834 39.7918 26.875 39.5835 26.875Z" fill="#16C612"/>
<path d="M46.0417 11.875L43.125 8.95837C42.7083 8.54171 42.2917 8.33337 41.6667 8.33337C41.0417 8.33337 40.625 8.54171 40.2083 8.95837L23.3333 25.8334L16.4583 18.9584C16.0417 18.5417 15.625 18.3334 15 18.3334C14.375 18.3334 13.9583 18.5417 13.5417 18.9584L10.625 21.875C10.2083 22.2917 10 22.7084 10 23.3334C10 23.9584 10.2083 24.375 10.625 24.7917L21.875 36.0417C22.2917 36.4584 22.7083 36.6667 23.3333 36.6667C23.9583 36.6667 24.375 36.4584 24.7917 36.0417L46.0417 14.7917C46.4583 14.375 46.6667 13.9584 46.6667 13.3334C46.6667 12.7084 46.4583 12.2917 46.0417 11.875Z" fill="#16C612"/>
</svg>
