<svg width="300" height="300" viewBox="0 0 300 300" fill="none" xmlns="http://www.w3.org/2000/svg">
<path d="M182.55 295.01H54.4295C44.862 295.01 37.1104 287.254 37.1104 277.691V17.3191C37.1104 7.75674 44.8671 0 54.4295 0H182.55C192.118 0 199.87 7.75674 199.87 17.3191V277.686C199.875 287.254 192.118 295.01 182.55 295.01Z" fill="#545E73"/>
<path d="M199.875 30.5183H37.1104V233.974H199.875V30.5183Z" fill="#8697CB"/>
<path d="M118.493 279.751C126.92 279.751 133.752 272.919 133.752 264.492C133.752 256.065 126.92 249.233 118.493 249.233C110.065 249.233 103.233 256.065 103.233 264.492C103.233 272.919 110.065 279.751 118.493 279.751Z" fill="#323A45"/>
<path d="M118.492 20.3456H98.1469C95.3342 20.3456 93.0605 18.072 93.0605 15.2592C93.0605 12.4465 95.3342 10.1729 98.1469 10.1729H118.492C121.305 10.1729 123.579 12.4465 123.579 15.2592C123.579 18.072 121.305 20.3456 118.492 20.3456Z" fill="#323A45"/>
<path d="M138.838 20.3456H133.751C130.939 20.3456 128.665 18.072 128.665 15.2592C128.665 12.4465 130.939 10.1729 133.751 10.1729H138.838C141.651 10.1729 143.924 12.4465 143.924 15.2592C143.924 18.072 141.651 20.3456 138.838 20.3456Z" fill="#323A45"/>
<path d="M201.858 300C235.568 300 262.895 272.673 262.895 238.963C262.895 205.254 235.568 177.927 201.858 177.927C168.149 177.927 140.822 205.254 140.822 238.963C140.822 272.673 168.149 300 201.858 300Z" fill="#FF7F40"/>
<path d="M235.281 209.361C232.966 207.753 229.803 208.323 228.201 210.632L199.737 251.527L179.651 235.037C177.484 233.251 174.275 233.572 172.494 235.744C170.709 237.916 171.024 241.12 173.201 242.9L197.545 262.885C198.46 263.632 199.6 264.039 200.77 264.039C200.999 264.039 201.233 264.024 201.466 263.993C202.87 263.795 204.132 263.027 204.946 261.862L236.552 216.446C238.155 214.137 237.585 210.963 235.281 209.361Z" fill="white"/>
</svg>
